@startuml

class Observer {
  + notify()
}

class ConcreteObserverA {
  + notify()
}

class ConcreteObserverB {
  + notify()
}

class Subject {
  + observerCollection
  + registerObserver(observer)
  + unregisterObserver(observer)
  + notifyObservers()
}

ConcreteObserverA --|> Observer
ConcreteObserverB --|> Observer
Subject *-- Observer

Note bottom of Subject: notifyObservers() \n for observer in observerCollection call observer.notify()

@enduml
